<?xml version="1.0" encoding="UTF-8"?>
<svg id="Layer_2" data-name="Layer 2" xmlns="http://www.w3.org/2000/svg" viewBox="0 0 175.7 175.7">
  <defs>
    <style>
      .cls-1 {
        stroke: #ed1c24;
      }

      .cls-1, .cls-2 {
        fill: none;
        stroke-linecap: round;
        stroke-miterlimit: 10;
        stroke-width: 5px;
      }

      .cls-3 {
        fill: #231f20;
      }

      .cls-4 {
        fill: #fff;
      }

      .cls-2 {
        stroke: #fff;
      }
    </style>
  </defs>
  <g id="Layer_1-2" data-name="Layer 1">
    <g>
      <circle class="cls-3" cx="87.85" cy="87.85" r="87.85"/>
      <g>
        <line class="cls-2" x1="49.78" y1="154.74" x2="58.04" y2="140.24"/>
        <line class="cls-2" x1="21.43" y1="126.75" x2="35.84" y2="118.31"/>
        <line class="cls-2" x1="10.88" y1="88.33" x2="27.57" y2="88.22"/>
        <line class="cls-2" x1="20.95" y1="49.78" x2="35.46" y2="58.04"/>
        <line class="cls-2" x1="48.95" y1="21.43" x2="57.39" y2="35.84"/>
        <line class="cls-2" x1="87.37" y1="10.88" x2="87.47" y2="27.57"/>
        <line class="cls-2" x1="125.92" y1="20.95" x2="117.66" y2="35.46"/>
        <line class="cls-2" x1="154.27" y1="48.95" x2="139.86" y2="57.39"/>
        <line class="cls-2" x1="164.82" y1="87.37" x2="148.12" y2="87.47"/>
        <line class="cls-2" x1="154.75" y1="125.92" x2="140.24" y2="117.66"/>
        <line class="cls-2" x1="126.75" y1="154.27" x2="118.31" y2="139.86"/>
        <line class="cls-2" x1="88.33" y1="164.82" x2="88.22" y2="148.12"/>
      </g>
      <path class="cls-4" d="M103.63,58.56c-5.55-2.49-10.76-3.74-15.52-3.74-17.44,0-31.6,14.73-31.6,32.85s13.82,32.97,31.94,32.97c5.78,0,11.33-1.48,16.2-4.31l2.72,6.57c-4.76,2.83-12.23,4.65-19.15,4.65-21.98,0-39.65-18.01-39.65-40.33s17.78-39.08,40.44-39.08c6.12,0,12.23,1.36,17.67,3.85l-3.05,6.57Z"/>
      <line class="cls-1" x1="162.13" y1="65.9" x2="87.85" y2="87.85"/>
    </g>
  </g>
</svg>